<svg width="84" height="58" viewBox="0 0 84 58" fill="none" xmlns="http://www.w3.org/2000/svg">
<rect x="0.5" y="0.5" width="83" height="57" rx="3.5" fill="white" stroke="#F3F3F3"/>
<path d="M25.9062 26.8693H21.696C21.7188 26.4261 21.6761 26.0312 21.5682 25.6847C21.4602 25.3324 21.2898 25.0312 21.0568 24.7812C20.8239 24.5256 20.5341 24.3324 20.1875 24.2017C19.8409 24.071 19.4375 24.0057 18.9773 24.0057C18.0966 24.0057 17.2983 24.2244 16.5824 24.6619C15.8665 25.0994 15.267 25.7301 14.7841 26.554C14.3011 27.3778 13.9631 28.3665 13.7699 29.5199C13.5938 30.6335 13.5966 31.5625 13.7784 32.3068C13.9659 33.0511 14.3125 33.6108 14.8182 33.9858C15.3239 34.3551 15.9659 34.5398 16.7443 34.5398C17.25 34.5398 17.7188 34.4801 18.1506 34.3608C18.5881 34.2358 18.983 34.0568 19.3352 33.8239C19.6875 33.5909 19.9915 33.3097 20.2472 32.9801C20.5085 32.6449 20.7102 32.2727 20.8523 31.8636H25.0966C24.8864 32.6307 24.5398 33.3949 24.0568 34.1562C23.5795 34.9119 22.9773 35.5966 22.25 36.2102C21.5227 36.8239 20.679 37.3153 19.7188 37.6847C18.7585 38.054 17.6903 38.2386 16.5142 38.2386C14.9063 38.2386 13.5199 37.8778 12.3551 37.1562C11.196 36.4347 10.358 35.3892 9.84091 34.0199C9.32955 32.6449 9.23295 30.9801 9.55114 29.0256C9.86364 27.1335 10.4801 25.5398 11.4006 24.2443C12.3267 22.9489 13.4517 21.9688 14.7756 21.304C16.1051 20.6392 17.5227 20.3068 19.0284 20.3068C20.1193 20.3068 21.0994 20.4545 21.9688 20.75C22.8438 21.0398 23.5852 21.4659 24.1932 22.0284C24.8011 22.5852 25.2528 23.2699 25.5483 24.0824C25.8494 24.8949 25.9688 25.8239 25.9062 26.8693ZM29.8182 38H25.2841L34.071 20.5455H39.6875L42.679 38H38.1449L36.2273 24.9432H36.0909L29.8182 38ZM30.3636 31.1307H39.8409L39.2955 34.3352H29.8182L30.3636 31.1307ZM55.4652 25.8125C55.5107 25.1705 55.3402 24.6733 54.9538 24.321C54.5732 23.9688 53.9709 23.7926 53.147 23.7926C52.6016 23.7926 52.1357 23.8636 51.7493 24.0057C51.3629 24.142 51.0589 24.3352 50.8374 24.5852C50.6158 24.8295 50.4766 25.1136 50.4197 25.4375C50.3686 25.6932 50.3828 25.9205 50.4624 26.1193C50.5419 26.3182 50.6811 26.4943 50.88 26.6477C51.0845 26.8011 51.3374 26.9347 51.6385 27.0483C51.9453 27.1619 52.2891 27.2614 52.6697 27.3466L54.1016 27.6875C54.9311 27.875 55.6499 28.125 56.2578 28.4375C56.8714 28.7443 57.3686 29.1165 57.7493 29.554C58.13 29.9858 58.3913 30.483 58.5334 31.0455C58.6754 31.608 58.6868 32.2386 58.5675 32.9375C58.3857 34.0398 57.951 34.9858 57.2635 35.7756C56.5817 36.5653 55.6896 37.1705 54.5874 37.5909C53.4908 38.0114 52.2152 38.2216 50.7607 38.2216C49.3061 38.2216 48.0703 38.0028 47.0533 37.5653C46.0419 37.1222 45.3089 36.4545 44.8544 35.5625C44.3999 34.6705 44.2777 33.5455 44.4879 32.1875H48.5192C48.4567 32.75 48.5277 33.2188 48.7322 33.5938C48.9425 33.9688 49.2663 34.2528 49.7038 34.446C50.1413 34.6392 50.6697 34.7358 51.2891 34.7358C51.8572 34.7358 52.3544 34.6591 52.7805 34.5057C53.2124 34.3523 53.5561 34.1392 53.8118 33.8665C54.0732 33.5937 54.2322 33.2812 54.2891 32.929C54.3459 32.6051 54.2919 32.3239 54.1271 32.0852C53.968 31.8466 53.6953 31.6392 53.3089 31.4631C52.9283 31.2869 52.4283 31.1278 51.8089 30.9858L50.0618 30.5597C48.6186 30.2074 47.5249 29.6449 46.7805 28.8722C46.0419 28.0994 45.7805 27.0511 45.9964 25.7273C46.1783 24.642 46.6271 23.6932 47.343 22.8807C48.0646 22.0682 48.9766 21.4375 50.0788 20.9886C51.1868 20.5341 52.4055 20.3068 53.7351 20.3068C55.0874 20.3068 56.2237 20.5369 57.1442 20.9972C58.0703 21.4517 58.7379 22.0937 59.147 22.9233C59.5618 23.7472 59.6811 24.7102 59.505 25.8125H55.4652ZM59.8629 38L62.7607 20.5455H66.9794L65.8203 27.5511H72.6982L73.8572 20.5455H78.0675L75.1697 38H70.9595L72.1186 30.9858H65.2408L64.0817 38H59.8629Z" fill="black"/>
</svg>
