<svg width="84" height="58" viewBox="0 0 84 58" fill="none" xmlns="http://www.w3.org/2000/svg">
<rect x="0.5" y="0.5" width="83" height="57" rx="3.5" fill="white" stroke="#F3F3F3"/>
<path d="M58.1976 9.07022C54.5856 9.07022 51.6238 11.9959 51.6238 15.644V22.4707H60.9066C61.1233 22.4707 61.3761 22.4707 61.5567 22.5068C63.6517 22.6152 65.2049 23.6988 65.2049 25.577C65.2049 27.0579 64.1574 28.3221 62.2069 28.575V28.6472C64.338 28.7917 65.9634 29.9836 65.9634 31.8258C65.9634 33.8124 64.1574 35.1127 61.7735 35.1127H51.5876V48.477H61.2317C64.8437 48.477 67.8055 45.5513 67.8055 41.9032V9.07022H58.1976Z" fill="url(#paint0_linear_0_767)"/>
<path d="M54.8387 33.0177H58.6313C58.6855 33.0177 58.7758 33.0087 58.8661 32.9997C58.9563 32.9906 59.0467 32.9816 59.1008 32.9816C59.8232 32.8371 60.4373 32.187 60.4373 31.284C60.4373 30.4171 59.8232 29.7669 59.1008 29.5863C58.9925 29.5502 58.7758 29.5502 58.6313 29.5502H54.8387V33.0177Z" fill="url(#paint1_linear_0_767)"/>
<path d="M58.6313 24.4573C59.3537 24.5657 59.9677 25.1436 59.9677 26.0105C59.9677 26.8774 59.3537 27.4553 58.6313 27.5637C58.5952 27.5998 58.3785 27.5998 58.2701 27.5998H54.8387V24.4212H58.2701C58.3297 24.4212 58.4113 24.4322 58.4846 24.442C58.5444 24.45 58.5988 24.4573 58.6313 24.4573Z" fill="url(#paint2_linear_0_767)"/>
<path d="M21.8607 9.07022C18.2488 9.07022 15.2869 11.9959 15.2869 15.644V31.8619C17.129 32.7649 19.0434 33.3428 20.9577 33.3428C23.2333 33.3428 24.4614 31.9702 24.4614 30.092V22.4346H30.0961V30.0559C30.0961 33.0177 28.254 35.4378 22.0052 35.4378C18.2126 35.4378 15.2508 34.607 15.2508 34.607V48.4409H24.8948C28.5068 48.4409 31.4687 45.5152 31.4687 41.8671V9.07022H21.8607Z" fill="url(#paint3_linear_0_767)"/>
<path d="M40.029 9.07022C36.417 9.07022 33.4552 11.9959 33.4552 15.644V24.2406C35.1167 22.8319 38.0063 21.9289 42.6658 22.1456C45.1581 22.254 47.8309 22.9403 47.8309 22.9403V25.7215C46.4945 25.0352 44.9052 24.4212 42.8464 24.2767C39.3066 24.0239 37.1756 25.7576 37.1756 28.7917C37.1756 31.8619 39.3066 33.5956 42.8464 33.3067C44.9052 33.1622 46.4945 32.512 47.8309 31.8619V34.6431C47.8309 34.6431 45.1942 35.3294 42.6658 35.4378C38.0063 35.6545 35.1167 34.7515 33.4552 33.3428V48.5132H43.0992C46.7112 48.5132 49.6731 45.5874 49.6731 41.9393V9.07022H40.029Z" fill="url(#paint4_linear_0_767)"/>
<defs>
<linearGradient id="paint0_linear_0_767" x1="51.6176" y1="26.006" x2="67.8496" y2="26.006" gradientUnits="userSpaceOnUse">
<stop stop-color="#007940"/>
<stop offset="0.2285" stop-color="#00873F"/>
<stop offset="0.7433" stop-color="#40A737"/>
<stop offset="1" stop-color="#5CB531"/>
</linearGradient>
<linearGradient id="paint1_linear_0_767" x1="51.6176" y1="26.006" x2="67.8496" y2="26.006" gradientUnits="userSpaceOnUse">
<stop stop-color="#007940"/>
<stop offset="0.2285" stop-color="#00873F"/>
<stop offset="0.7433" stop-color="#40A737"/>
<stop offset="1" stop-color="#5CB531"/>
</linearGradient>
<linearGradient id="paint2_linear_0_767" x1="51.6176" y1="26.006" x2="67.8496" y2="26.006" gradientUnits="userSpaceOnUse">
<stop stop-color="#007940"/>
<stop offset="0.2285" stop-color="#00873F"/>
<stop offset="0.7433" stop-color="#40A737"/>
<stop offset="1" stop-color="#5CB531"/>
</linearGradient>
<linearGradient id="paint3_linear_0_767" x1="15.2793" y1="28.7579" x2="31.7619" y2="28.7579" gradientUnits="userSpaceOnUse">
<stop stop-color="#1F286F"/>
<stop offset="0.4751" stop-color="#004E94"/>
<stop offset="0.8261" stop-color="#0066B1"/>
<stop offset="1" stop-color="#006FBC"/>
</linearGradient>
<linearGradient id="paint4_linear_0_767" x1="33.3618" y1="28.7579" x2="49.3703" y2="28.7579" gradientUnits="userSpaceOnUse">
<stop stop-color="#6C2C2F"/>
<stop offset="0.1735" stop-color="#882730"/>
<stop offset="0.5731" stop-color="#BE1833"/>
<stop offset="0.8585" stop-color="#DC0436"/>
<stop offset="1" stop-color="#E60039"/>
</linearGradient>
</defs>
</svg>
