<svg width="84" height="58" viewBox="0 0 84 58" fill="none" xmlns="http://www.w3.org/2000/svg">
<rect x="0.5" y="0.5" width="83" height="57" rx="3.5" fill="white" stroke="#F3F3F3"/>
<path fill-rule="evenodd" clip-rule="evenodd" d="M38.4282 23.0026C38.2988 23.0678 38.1531 23.1056 37.9982 23.1056C37.6397 23.1056 37.3283 22.9085 37.1644 22.6165L37.1018 22.4794L34.4918 16.7521C34.4636 16.6897 34.4462 16.6193 34.4462 16.5507C34.4462 16.2868 34.6601 16.0728 34.9241 16.0728C35.0313 16.0728 35.1302 16.1085 35.2099 16.1677L38.29 18.3606C38.515 18.5078 38.7838 18.5942 39.073 18.5942C39.2454 18.5942 39.4099 18.5619 39.5631 18.5063L54.0475 12.0597C51.4512 8.99972 47.1753 7 42.3365 7C34.4184 7 28 12.3489 28 18.9475C28 22.5473 29.9311 25.7878 32.9536 27.9781C33.1961 28.1512 33.3548 28.4357 33.3548 28.7567C33.3548 28.8628 33.3322 28.9598 33.3044 29.061C33.063 29.9615 32.6767 31.4036 32.6586 31.4711C32.6285 31.5842 32.5815 31.7021 32.5815 31.8204C32.5815 32.0843 32.7954 32.2981 33.0597 32.2981C33.1631 32.2981 33.248 32.2597 33.3355 32.2092L36.4741 30.3972C36.7103 30.261 36.9601 30.1765 37.2356 30.1765C37.3821 30.1765 37.5237 30.1991 37.6568 30.2399C39.1211 30.661 40.7008 30.895 42.3365 30.895C50.2542 30.895 56.6735 25.5457 56.6735 18.9475C56.6735 16.9489 56.0813 15.0667 55.0404 13.411L38.5328 22.9421L38.4282 23.0026Z" fill="#1AAD19"/>
<path fill-rule="evenodd" clip-rule="evenodd" d="M72.1376 41.8739L73.5733 45.7475C73.7223 46.181 73.8849 46.6956 73.9933 47.0884H74.0203C74.1423 46.6956 74.2776 46.1945 74.4402 45.7202L75.7404 41.8739H77L75.2121 46.5465C74.3589 48.795 73.7765 49.9462 72.964 50.6504C72.5151 51.047 72.0664 51.2588 71.7477 51.3598C71.6501 51.1846 71.2032 50.4202 71.2032 50.4202C71.5011 50.3255 71.8939 50.1358 72.246 49.838C72.5711 49.5804 72.9774 49.1199 73.2482 48.5104C73.3025 48.3887 73.3431 48.2937 73.3431 48.226C73.3431 48.1584 73.316 48.0634 73.2618 47.9147L70.8374 41.8739H72.1376ZM44.688 41.7248C46.6924 41.7248 47.1802 43.0927 47.1802 44.4066V46.8582C47.1802 47.4268 47.2071 47.9823 47.2884 48.4292H46.2049L46.1101 47.6029H46.0693C45.7037 48.1178 44.9995 48.5783 44.0649 48.5783C42.7375 48.5783 42.0603 47.6435 42.0603 46.6956C42.0603 45.1111 43.4688 44.2442 46.0017 44.2577V44.1221C46.0017 43.5805 45.8527 42.6052 44.5118 42.6052C43.9603 42.6052 43.3868 42.7604 42.9414 43.0107C42.8302 42.8197 42.5344 42.3074 42.5344 42.3074C43.0761 41.955 43.8617 41.7248 44.688 41.7248ZM66.9919 41.7248C68.9963 41.7248 69.484 43.0927 69.484 44.4066V46.8582C69.484 47.4268 69.511 47.9823 69.5923 48.4292H68.5088L68.414 47.6029H68.3733C68.0076 48.1178 67.3034 48.5783 66.3688 48.5783C65.0415 48.5783 64.3642 47.6435 64.3642 46.6956C64.3642 45.1111 65.7728 44.2442 68.3056 44.2577V44.1221C68.3056 43.5805 68.1565 42.6052 66.8157 42.6052C66.2642 42.6052 65.6906 42.7604 65.2454 43.0107C65.1341 42.8197 64.8383 42.3074 64.8383 42.3074C65.3801 41.955 66.1655 41.7248 66.9919 41.7248ZM30.6587 39.1514C31.7965 39.1514 32.5144 39.3952 32.8258 39.5578C32.8258 39.5578 32.4658 40.1838 32.3184 40.4222C31.8926 40.2561 31.3394 40.1403 30.6993 40.1403C28.5593 40.1403 27.1373 41.5081 27.1373 43.9055C27.1373 46.1401 28.424 47.5759 30.6452 47.5759C31.2513 47.5759 31.8673 47.4696 32.3296 47.2979C32.437 47.4852 32.8122 48.1313 32.8122 48.1313C32.3788 48.348 31.5119 48.5648 30.4014 48.5648C27.828 48.5648 25.8912 46.9393 25.8912 43.946C25.8912 41.0883 27.828 39.1514 30.6587 39.1514ZM21.8022 41.7248C23.9422 41.7248 24.511 43.6075 24.511 44.8128C24.511 45.0565 24.484 45.2462 24.4704 45.3683H19.8653C19.8924 46.9799 20.9218 47.6435 22.1137 47.6435C22.8166 47.6435 23.2898 47.5425 23.6847 47.401C23.7941 47.5814 24.1318 48.1584 24.1318 48.1584C23.712 48.348 22.994 48.5647 21.9511 48.5647C19.933 48.5647 18.7277 47.2375 18.7277 45.2598C18.7277 43.2823 19.8924 41.7248 21.8022 41.7248ZM50.8901 39.9912V41.8739H52.5967V42.7814H50.8901V46.3163C50.8901 47.129 51.1204 47.5895 51.7841 47.5895C51.8815 47.5895 51.9711 47.5855 52.0527 47.5787C52.1926 47.8141 52.5288 48.4023 52.5288 48.4023C52.2986 48.4968 51.933 48.5647 51.4726 48.5647C50.9173 48.5647 50.4703 48.3887 50.1859 48.0634C49.8473 47.7115 49.7254 47.129 49.7254 46.3568V42.7814H48.7095V41.8739H49.7254V39.9912H50.8901ZM59.9226 39.2329C61.0874 39.2329 61.9407 39.5037 62.4825 39.9912C62.9837 40.4246 63.2816 41.0883 63.2816 41.901C63.2816 42.7273 63.0378 43.3773 62.5773 43.8514C61.9543 44.515 60.9385 44.8535 59.7872 44.8535C59.435 44.8535 59.1101 44.8398 58.839 44.7722V48.4292H57.6607V39.4087C58.2297 39.314 58.9746 39.2329 59.9226 39.2329ZM8.24597 39.3005L9.3295 43.9191C9.60044 45.0565 9.8442 46.1945 10.0068 47.0749H10.0338C10.1828 46.1674 10.4673 45.084 10.7788 43.9055L11.9977 39.3005H13.2302L14.3409 43.9325C14.5982 45.016 14.842 46.0996 14.9774 47.0614H15.0046C15.1941 46.059 15.4516 45.043 15.736 43.9055L16.9414 39.3005H18.1468L15.5599 48.4293H14.3272L13.1761 43.6753C12.8916 42.5105 12.7021 41.6166 12.5801 40.6954H12.553C12.3906 41.6032 12.1873 42.497 11.8488 43.6753L10.5486 48.4293H9.31597L7 39.3005H8.24597ZM35.8449 38.813V42.9034H35.872C36.0616 42.5646 36.3596 42.2668 36.7252 42.0636C37.0776 41.8604 37.4972 41.7249 37.9444 41.7249C38.8247 41.7249 40.2333 42.2668 40.2333 44.5285V48.4292H39.0414V44.6641C39.0414 43.6076 38.6486 42.7136 37.5245 42.7136C36.7523 42.7136 36.1428 43.2553 35.9262 43.9055C35.8585 44.068 35.8449 44.2442 35.8449 44.4744V48.4292H34.653V38.813H35.8449ZM43.2522 46.5601C43.2522 47.3322 43.7668 47.698 44.3765 47.698C45.2297 47.698 45.7714 47.156 45.9609 46.6009C46.0017 46.4789 46.0287 46.3433 46.0287 46.2216V45.084C44.7285 45.0565 43.2522 45.2868 43.2522 46.5601ZM65.5561 46.5601C65.5561 47.3322 66.0708 47.698 66.6803 47.698C67.5336 47.698 68.0754 47.156 68.2649 46.6009C68.3056 46.4789 68.3327 46.3433 68.3327 46.2216V45.084C67.0324 45.0565 65.5561 45.2868 65.5561 46.5601ZM21.7073 42.5781C20.5019 42.5781 19.9736 43.6887 19.8788 44.515H23.3598C23.3733 43.7564 23.0483 42.5781 21.7073 42.5781ZM59.9498 40.1674C59.435 40.1674 59.0422 40.2079 58.839 40.262V43.8107C59.0965 43.8783 59.4216 43.9055 59.8143 43.9055C61.2365 43.9055 62.1034 43.2147 62.1034 41.955C62.1034 40.7498 61.2501 40.1674 59.9498 40.1674Z" fill="#4D4D4D"/>
</svg>
